<svg width="44" height="44" viewBox="0 0 44 44" fill="none" xmlns="http://www.w3.org/2000/svg">
<rect x="0.5" y="0.5" width="43" height="43" rx="7.5" fill="#E4E4E4"/>
<rect x="0.5" y="0.5" width="43" height="43" rx="7.5" stroke="#E4E4E4"/>
<path d="M14.015 8.61316C13.9561 10.2013 13.8998 11.8425 13.8539 13.2289C13.7801 15.4552 14.6409 17.6237 16.2063 19.2084C19.3918 22.4331 24.6365 22.4372 27.7891 19.1803C29.3147 17.6043 30.1339 15.4756 30.0584 13.2834L29.898 8.62188C29.8623 7.58415 29.4702 6.59039 28.7878 5.80781C27.9703 4.8704 26.8025 4.31145 25.5597 4.26271L22.0428 4.12479L18.3675 4.26465C17.1194 4.31215 15.9463 4.87281 15.1254 5.81414C14.4462 6.59298 14.0533 7.58049 14.015 8.61316Z" fill="white" stroke="#E4E4E4" stroke-width="1.375"/>
<path d="M29.8659 35.3864C29.9376 33.4507 30.0055 31.4362 30.0556 29.9003C30.1111 28.1994 29.6238 26.5174 28.6764 25.1037C25.4426 20.2783 18.3094 20.2733 15.1208 25.1288C14.1992 26.5321 13.7354 28.1866 13.7931 29.8644L13.9829 35.3777C14.0186 36.4154 14.4106 37.4092 15.0931 38.1917C15.9106 39.1292 17.0783 39.6881 18.3212 39.7368L21.8381 39.8748L25.5134 39.7349C26.7615 39.6874 27.9346 39.1268 28.7555 38.1854C29.4347 37.4066 29.8276 36.4191 29.8659 35.3864Z" fill="white" stroke="#E4E4E4" stroke-width="1.375"/>
<circle cx="22" cy="21.8647" r="11" fill="white" stroke="#E4E4E4" stroke-width="1.375"/>
<path d="M22.0004 14.8525V21.1292C22.0004 21.5889 21.7706 22.0182 21.3881 22.2732L18.4941 24.2025" stroke="#E4E4E4" stroke-width="1.375" stroke-linecap="round"/>
</svg>
