<svg width="25" height="21" viewBox="0 0 25 21" fill="none" xmlns="http://www.w3.org/2000/svg">
<g clip-path="url(#clip0_368_27736)">
<circle cx="7.5" cy="4.5" r="3" stroke="#111111"/>
<path d="M7.5 7.5C9.05209 7.5 10.5293 8.34879 11.7412 9.87402C12.9529 11.399 13.8672 13.5668 14.2715 16.0908C14.4761 17.3681 13.4074 18.5 12 18.5H3C1.59256 18.5 0.523938 17.3681 0.728516 16.0908C1.13283 13.5668 2.04715 11.399 3.25879 9.87402C4.47072 8.34879 5.94791 7.5 7.5 7.5Z" stroke="#111111"/>
<circle cx="16" cy="4" r="3.5" stroke="#111111"/>
<path d="M16 7.5C17.9591 7.5 19.8059 8.56967 21.291 10.4531C22.7759 12.3364 23.8683 15.0014 24.2988 18.0781C24.4795 19.3706 23.403 20.5 22 20.5H10C8.59699 20.5 7.52052 19.3706 7.70117 18.0781C8.13169 15.0014 9.22412 12.3364 10.709 10.4531C12.1941 8.56967 14.0409 7.5 16 7.5Z" stroke="#111111"/>
</g>
<defs>
<clipPath id="clip0_368_27736">
<rect width="25" height="21" fill="white"/>
</clipPath>
</defs>
</svg>
