<svg width="20" height="21" viewBox="0 0 20 21" fill="none" xmlns="http://www.w3.org/2000/svg">
<g clip-path="url(#clip0_368_27744)">
<circle cx="8.97852" cy="4" r="3.5" stroke="#111111"/>
<path d="M12.0332 10.7578L13.1289 13.4297H13.1758L14.2715 10.7578H15.5078V15H14.5352V12.3633H14.5L13.4688 14.9766H12.8359L11.8047 12.3516H11.7695V15H10.7969V10.7578H12.0332ZM16.9707 16.1953C16.7715 16.1953 16.6074 16.1895 16.4785 16.1777V15.4277C16.5645 15.4355 16.6934 15.4395 16.8652 15.4395C16.9297 15.4395 16.9824 15.4346 17.0234 15.4248C17.0664 15.415 17.1064 15.3936 17.1436 15.3604C17.1807 15.3271 17.2129 15.2773 17.2402 15.2109L17.2754 15.1113L16.1445 11.8184H17.1758L17.7793 14.1035H17.8145L18.418 11.8184H19.4609L18.2539 15.3105C18.1602 15.5918 18.0107 15.8096 17.8057 15.9639C17.6025 16.1182 17.3242 16.1953 16.9707 16.1953Z" fill="#111111"/>
<path d="M8.99971 7C11.1063 7.00002 13.0424 8.12209 14.5778 10H13.239C11.9608 8.69276 10.4989 8.00002 8.99971 8C7.23067 8.00007 5.51139 8.96234 4.0876 10.7637C2.66398 12.5648 1.59612 15.1417 1.17451 18.1475C1.04206 19.0921 1.82844 20 2.97724 20H15.0231C16.1718 19.9999 16.9574 19.092 16.8249 18.1475C16.7701 17.7565 16.7037 17.3728 16.6276 16.9971C16.9708 16.9873 17.3014 16.9288 17.613 16.8271C17.6908 17.2141 17.7589 17.6082 17.8151 18.0088C18.0451 19.6494 16.6798 20.9999 15.0231 21H2.97724L2.82197 20.9961C1.28703 20.9177 0.0440126 19.6814 0.167674 18.1611L0.184275 18.0088C1.06719 11.7143 4.67888 7.00015 8.99971 7Z" fill="#111111"/>
</g>
<defs>
<clipPath id="clip0_368_27744">
<rect width="20" height="21" fill="white"/>
</clipPath>
</defs>
</svg>
