<svg width="21" height="21" viewBox="0 0 21 21" fill="none" xmlns="http://www.w3.org/2000/svg">
<g clip-path="url(#clip0_368_27835)">
<circle cx="9" cy="4" r="3.5" fill="#505050" stroke="white"/>
<path d="M9.02148 7.5C10.9863 7.5 12.8376 8.5707 14.3262 10.4541C15.8146 12.3373 16.9103 15.0016 17.3418 18.0781C17.523 19.3707 16.4476 20.4999 15.0449 20.5H2.99902C1.59625 20.5 0.51998 19.3708 0.701172 18.0781C1.13268 15.0018 2.22844 12.3373 3.7168 10.4541C5.20535 8.57076 7.05675 7.50007 9.02148 7.5Z" fill="#505050" stroke="white"/>
<mask id="path-3-outside-1_368_27835" maskUnits="userSpaceOnUse" x="10" y="10" width="11" height="7" fill="black">
<rect fill="white" x="10" y="10" width="11" height="7"/>
<path d="M12.0332 10.7578L13.1289 13.4297H13.1758L14.2715 10.7578H15.5078V15H14.5352V12.3633H14.5L13.4688 14.9766H12.8359L11.8047 12.3516H11.7695V15H10.7969V10.7578H12.0332ZM16.9707 16.1953C16.7715 16.1953 16.6074 16.1895 16.4785 16.1777V15.4277C16.5645 15.4355 16.6934 15.4395 16.8652 15.4395C16.9297 15.4395 16.9824 15.4346 17.0234 15.4248C17.0664 15.415 17.1064 15.3936 17.1436 15.3604C17.1807 15.3271 17.2129 15.2773 17.2402 15.2109L17.2754 15.1113L16.1445 11.8184H17.1758L17.7793 14.1035H17.8145L18.418 11.8184H19.4609L18.2539 15.3105C18.1602 15.5918 18.0107 15.8096 17.8057 15.9639C17.6025 16.1182 17.3242 16.1953 16.9707 16.1953Z"/>
</mask>
<path d="M12.0332 10.7578L13.1289 13.4297H13.1758L14.2715 10.7578H15.5078V15H14.5352V12.3633H14.5L13.4688 14.9766H12.8359L11.8047 12.3516H11.7695V15H10.7969V10.7578H12.0332ZM16.9707 16.1953C16.7715 16.1953 16.6074 16.1895 16.4785 16.1777V15.4277C16.5645 15.4355 16.6934 15.4395 16.8652 15.4395C16.9297 15.4395 16.9824 15.4346 17.0234 15.4248C17.0664 15.415 17.1064 15.3936 17.1436 15.3604C17.1807 15.3271 17.2129 15.2773 17.2402 15.2109L17.2754 15.1113L16.1445 11.8184H17.1758L17.7793 14.1035H17.8145L18.418 11.8184H19.4609L18.2539 15.3105C18.1602 15.5918 18.0107 15.8096 17.8057 15.9639C17.6025 16.1182 17.3242 16.1953 16.9707 16.1953Z" fill="white"/>
<path d="M12.0332 10.7578L12.4958 10.5681L12.3686 10.2578H12.0332V10.7578ZM13.1289 13.4297L12.6663 13.6194L12.7935 13.9297H13.1289V13.4297ZM13.1758 13.4297V13.9297H13.5111L13.6384 13.6194L13.1758 13.4297ZM14.2715 10.7578V10.2578H13.9361L13.8089 10.5681L14.2715 10.7578ZM15.5078 10.7578H16.0078V10.2578H15.5078V10.7578ZM15.5078 15V15.5H16.0078V15H15.5078ZM14.5352 15H14.0352V15.5H14.5352V15ZM14.5352 12.3633H15.0352V11.8633H14.5352V12.3633ZM14.5 12.3633V11.8633H14.1598L14.0349 12.1797L14.5 12.3633ZM13.4688 14.9766V15.4766H13.809L13.9338 15.1601L13.4688 14.9766ZM12.8359 14.9766L12.3706 15.1594L12.4952 15.4766H12.8359V14.9766ZM11.8047 12.3516L12.2701 12.1687L12.1455 11.8516H11.8047V12.3516ZM11.7695 12.3516V11.8516H11.2695V12.3516H11.7695ZM11.7695 15V15.5H12.2695V15H11.7695ZM10.7969 15H10.2969V15.5H10.7969V15ZM10.7969 10.7578V10.2578H10.2969V10.7578H10.7969ZM12.0332 10.7578L11.5706 10.9475L12.6663 13.6194L13.1289 13.4297L13.5915 13.24L12.4958 10.5681L12.0332 10.7578ZM13.1289 13.4297V13.9297H13.1758V13.4297V12.9297H13.1289V13.4297ZM13.1758 13.4297L13.6384 13.6194L14.7341 10.9475L14.2715 10.7578L13.8089 10.5681L12.7132 13.24L13.1758 13.4297ZM14.2715 10.7578V11.2578H15.5078V10.7578V10.2578H14.2715V10.7578ZM15.5078 10.7578H15.0078V15H15.5078H16.0078V10.7578H15.5078ZM15.5078 15V14.5H14.5352V15V15.5H15.5078V15ZM14.5352 15H15.0352V12.3633H14.5352H14.0352V15H14.5352ZM14.5352 12.3633V11.8633H14.5V12.3633V12.8633H14.5352V12.3633ZM14.5 12.3633L14.0349 12.1797L13.0037 14.793L13.4688 14.9766L13.9338 15.1601L14.9651 12.5468L14.5 12.3633ZM13.4688 14.9766V14.4766H12.8359V14.9766V15.4766H13.4688V14.9766ZM12.8359 14.9766L13.3013 14.7937L12.2701 12.1687L11.8047 12.3516L11.3393 12.5344L12.3706 15.1594L12.8359 14.9766ZM11.8047 12.3516V11.8516H11.7695V12.3516V12.8516H11.8047V12.3516ZM11.7695 12.3516H11.2695V15H11.7695H12.2695V12.3516H11.7695ZM11.7695 15V14.5H10.7969V15V15.5H11.7695V15ZM10.7969 15H11.2969V10.7578H10.7969H10.2969V15H10.7969ZM10.7969 10.7578V11.2578H12.0332V10.7578V10.2578H10.7969V10.7578ZM16.4785 16.1777H15.9785V16.6343L16.4332 16.6757L16.4785 16.1777ZM16.4785 15.4277L16.5238 14.9298L15.9785 14.8802V15.4277H16.4785ZM17.0234 15.4248L16.9126 14.9372L16.9076 14.9384L17.0234 15.4248ZM17.2402 15.2109L17.7026 15.4013L17.7075 15.3894L17.7117 15.3773L17.2402 15.2109ZM17.2754 15.1113L17.7469 15.2777L17.8048 15.1136L17.7483 14.9489L17.2754 15.1113ZM16.1445 11.8184V11.3184H15.4442L15.6716 11.9808L16.1445 11.8184ZM17.1758 11.8184L17.6592 11.6907L17.5609 11.3184H17.1758V11.8184ZM17.7793 14.1035L17.2959 14.2312L17.3942 14.6035H17.7793V14.1035ZM17.8145 14.1035V14.6035H18.1995L18.2979 14.2312L17.8145 14.1035ZM18.418 11.8184V11.3184H18.0329L17.9345 11.6907L18.418 11.8184ZM19.4609 11.8184L19.9335 11.9817L20.1628 11.3184H19.4609V11.8184ZM18.2539 15.3105L17.7813 15.1472L17.7796 15.1524L18.2539 15.3105ZM17.8057 15.9639L17.5051 15.5643L17.5032 15.5657L17.8057 15.9639ZM16.9707 16.1953V15.6953C16.7795 15.6953 16.6319 15.6896 16.5238 15.6798L16.4785 16.1777L16.4332 16.6757C16.5829 16.6893 16.7635 16.6953 16.9707 16.6953V16.1953ZM16.4785 16.1777H16.9785V15.4277H16.4785H15.9785V16.1777H16.4785ZM16.4785 15.4277L16.4332 15.9257C16.5426 15.9356 16.6899 15.9395 16.8652 15.9395V15.4395V14.9395C16.6968 14.9395 16.5863 14.9355 16.5238 14.9298L16.4785 15.4277ZM16.8652 15.4395V15.9395C16.9505 15.9395 17.0459 15.9334 17.1392 15.9112L17.0234 15.4248L16.9076 14.9384C16.915 14.9366 16.9156 14.9371 16.907 14.9379C16.8988 14.9387 16.8852 14.9395 16.8652 14.9395V15.4395ZM17.0234 15.4248L17.1342 15.9124C17.2702 15.8815 17.385 15.8153 17.477 15.733L17.1436 15.3604L16.8102 14.9877C16.8279 14.9718 16.8626 14.9486 16.9126 14.9372L17.0234 15.4248ZM17.1436 15.3604L17.477 15.733C17.5894 15.6323 17.6583 15.5088 17.7026 15.4013L17.2402 15.2109L16.7779 15.0206C16.7735 15.0311 16.7722 15.032 16.7758 15.0265C16.7794 15.0209 16.7899 15.0058 16.8102 14.9877L17.1436 15.3604ZM17.2402 15.2109L17.7117 15.3773L17.7469 15.2777L17.2754 15.1113L16.8039 14.9449L16.7687 15.0445L17.2402 15.2109ZM17.2754 15.1113L17.7483 14.9489L16.6174 11.656L16.1445 11.8184L15.6716 11.9808L16.8025 15.2737L17.2754 15.1113ZM16.1445 11.8184V12.3184H17.1758V11.8184V11.3184H16.1445V11.8184ZM17.1758 11.8184L16.6924 11.946L17.2959 14.2312L17.7793 14.1035L18.2627 13.9758L17.6592 11.6907L17.1758 11.8184ZM17.7793 14.1035V14.6035H17.8145V14.1035V13.6035H17.7793V14.1035ZM17.8145 14.1035L18.2979 14.2312L18.9014 11.946L18.418 11.8184L17.9345 11.6907L17.331 13.9758L17.8145 14.1035ZM18.418 11.8184V12.3184H19.4609V11.8184V11.3184H18.418V11.8184ZM19.4609 11.8184L18.9884 11.655L17.7813 15.1472L18.2539 15.3105L18.7265 15.4739L19.9335 11.9817L19.4609 11.8184ZM18.2539 15.3105L17.7796 15.1524C17.7128 15.3528 17.617 15.4801 17.5051 15.5643L17.8057 15.9639L18.1063 16.3634C18.4045 16.139 18.6075 15.8308 18.7282 15.4687L18.2539 15.3105ZM17.8057 15.9639L17.5032 15.5657C17.4151 15.6327 17.2563 15.6953 16.9707 15.6953V16.1953V16.6953C17.3921 16.6953 17.79 16.6037 18.1081 16.362L17.8057 15.9639Z" fill="#505050" mask="url(#path-3-outside-1_368_27835)"/>
</g>
<defs>
<clipPath id="clip0_368_27835">
<rect width="21" height="21" fill="white"/>
</clipPath>
</defs>
</svg>
