<svg width="24" height="24" viewBox="0 0 24 24" fill="currentColor" xmlns="http://www.w3.org/2000/svg">
<path d="M10.6904 2.01074C15.0576 2.22868 18.53 5.78551 18.5303 10.1416L18.5195 10.5615C18.4175 12.5415 17.5961 14.3333 16.3096 15.6924L21.9971 21.2949L21.2852 21.9971L15.5791 16.376C14.1423 17.5658 12.2896 18.2841 10.2656 18.2842L9.83984 18.2734C5.6138 18.0623 2.2252 14.7245 2.01074 10.5615L2 10.1416C2.00025 5.64508 5.70095 2 10.2656 2L10.6904 2.01074ZM10.2656 3C6.23902 3 3.00025 6.21148 3 10.1416C3 14.0719 6.23886 17.2842 10.2656 17.2842C14.2923 17.284 17.5303 14.0718 17.5303 10.1416C17.53 6.21156 14.2921 3.00014 10.2656 3Z" fill="currentColor"/>
</svg>
