<svg width="24" height="24" viewBox="0 0 24 24" fill="none" xmlns="http://www.w3.org/2000/svg">
<path d="M15.2041 2.51074C16.2128 2.613 17 3.46435 17 4.5V5.5H21.5C21.7761 5.5 22 5.72386 22 6C22 6.27614 21.7761 6.5 21.5 6.5H19V19.5C19 20.5357 18.2128 21.387 17.2041 21.4893L17 21.5H7L6.7959 21.4893C5.78722 21.387 5 20.5357 5 19.5V6.5H2.5C2.22386 6.5 2 6.27614 2 6C2 5.72386 2.22386 5.5 2.5 5.5H7V4.5C7 3.46435 7.78722 2.613 8.7959 2.51074L9 2.5H15L15.2041 2.51074ZM6 19.5C6 20.0523 6.44772 20.5 7 20.5H17C17.5523 20.5 18 20.0523 18 19.5V6.5H6V19.5ZM9.5 9.5C9.77614 9.5 10 9.72386 10 10V17C10 17.2761 9.77614 17.5 9.5 17.5C9.22386 17.5 9 17.2761 9 17V10C9 9.72386 9.22386 9.5 9.5 9.5ZM14.5 9.5C14.7761 9.5 15 9.72386 15 10V17C15 17.2761 14.7761 17.5 14.5 17.5C14.2239 17.5 14 17.2761 14 17V10C14 9.72386 14.2239 9.5 14.5 9.5ZM9 3.5C8.44772 3.5 8 3.94772 8 4.5V5.5H16V4.5C16 3.94772 15.5523 3.5 15 3.5H9Z" fill="#656565"/>
</svg>
