<svg width="24" height="24" viewBox="0 0 24 24" fill="none" xmlns="http://www.w3.org/2000/svg">
<g clip-path="url(#clip0_485_7425)">
<path d="M5.63642 5.63604C6.02695 5.24551 6.66011 5.24551 7.05064 5.63604L12.0004 10.5858L16.9501 5.63604C17.3407 5.24552 17.9738 5.24552 18.3643 5.63604C18.7549 6.02656 18.7549 6.65973 18.3643 7.05025L13.4146 12L18.3643 16.9497C18.7549 17.3403 18.7549 17.9734 18.3643 18.364C17.9738 18.7545 17.3407 18.7545 16.9501 18.364L12.0004 13.4142L7.05064 18.364C6.66011 18.7545 6.02695 18.7545 5.63642 18.364C5.2459 17.9734 5.2459 17.3403 5.63642 16.9497L10.5862 12L5.63642 7.05025C5.2459 6.65973 5.2459 6.02656 5.63642 5.63604Z" fill="#999999"/>
</g>
<defs>
<clipPath id="clip0_485_7425">
<rect width="24" height="24" fill="white"/>
</clipPath>
</defs>
</svg>
