<svg width="12" height="12" viewBox="0 0 12 12" fill="none" xmlns="http://www.w3.org/2000/svg">
<path d="M10.9498 1.05025C11.3404 1.44078 11.3404 2.07394 10.9498 2.46447L8.1214 5.29289C7.73088 5.68342 7.73088 6.31658 8.1214 6.70711L10.9498 9.53553C11.3404 9.92606 11.3404 10.5592 10.9498 10.9497C10.5593 11.3403 9.92614 11.3403 9.53561 10.9497L6.70719 8.12132C6.31666 7.7308 5.6835 7.7308 5.29297 8.12132L2.46455 10.9497C2.07402 11.3403 1.44086 11.3403 1.05033 10.9497C0.659809 10.5592 0.659809 9.92606 1.05033 9.53553L3.87876 6.70711C4.26928 6.31658 4.26928 5.68342 3.87876 5.29289L1.05033 2.46447C0.659809 2.07394 0.659809 1.44078 1.05033 1.05025C1.44086 0.659728 2.07402 0.659728 2.46455 1.05025L5.29297 3.87868C5.6835 4.2692 6.31666 4.2692 6.70719 3.87868L9.53561 1.05025C9.92614 0.659729 10.5593 0.659728 10.9498 1.05025Z" fill="white"/>
</svg>
