<svg width="28" height="28" viewBox="0 0 28 28" fill="none" xmlns="http://www.w3.org/2000/svg">
<g clip-path="url(#clip0_966_52060)">
<path d="M13.202 1.05662C13.6021 0.526844 14.3979 0.526843 14.798 1.05662L19.371 7.11175C19.4907 7.27018 19.6548 7.38941 19.8424 7.45425L27.0144 9.93232C27.6418 10.1491 27.8877 10.906 27.5075 11.4502L23.1619 17.6705C23.0482 17.8333 22.9855 18.0262 22.9818 18.2247L22.8413 25.8114C22.829 26.4752 22.1852 26.9429 21.5501 26.7495L14.2913 24.5387C14.1014 24.4809 13.8986 24.4809 13.7087 24.5387L6.44988 26.7495C5.81479 26.9429 5.17099 26.4752 5.1587 25.8114L5.01816 18.2247C5.01448 18.0262 4.9518 17.8333 4.83809 17.6705L0.492463 11.4502C0.112256 10.906 0.358164 10.1491 0.985649 9.93232L8.15757 7.45425C8.34522 7.38941 8.50933 7.27018 8.62898 7.11175L13.202 1.05662Z" fill="#D9D9D9"/>
<path d="M14 24.4951C13.9019 24.4951 13.8039 24.5102 13.709 24.5391L6.4502 26.749C5.81515 26.9424 5.17058 26.4752 5.1582 25.8115L5.01758 18.2246C5.01388 18.0262 4.95148 17.8336 4.83789 17.6709L0.492188 11.4502C0.112105 10.906 0.358081 10.1495 0.985352 9.93262L8.15723 7.4541C8.34488 7.38926 8.50925 7.26976 8.62891 7.11133L13.2021 1.05664C13.4022 0.791792 13.701 0.659145 14 0.65918V24.4951Z" fill="#FFC553"/>
</g>
<defs>
<clipPath id="clip0_966_52060">
<rect width="28" height="28" fill="white"/>
</clipPath>
</defs>
</svg>
